# xmcd CD database file
#
# Track frame offsets:
#	150
#	14316
#	28578
#	42570
#	57156
#	71192
#	84522
#	97402
#	110854
#	124928
#	137799
#	151868
#	165511
#	179056
#	192932
#	206061
#	220686
#	234932
#	249072
#	262882
#	275809
#	288338
#	301889
#	315540
#	328631
#
# Disc length: 4556 seconds
#
# Revision: 0
# Processed by: cddbd v1.5.2PL0 Copyright (c) Steve Scherf et al.
# Submitted via: CDex 1.70beta2
#
DISCID=7211ca19
DTITLE=Tanner Gid and his Skillet Lickers - Old timey's favorite band 2
DYEAR=2012
DGENRE=Country
TTITLE0=Sal's gone to the cider mill
TTITLE1=New Arkansas traveller
TTITLE2=Leather breeches
TTITLE3=Sugar in the gourd
TTITLE4=Georgia Wagner
TTITLE5=Watermelon on the vine
TTITLE6=Don't you hear Jerusalem moan
TTITLE7=A fiddler's convention in Georgia 1
TTITLE8=A fiddler's convention in Georgia 2
TTITLE9=Settin' in the chimney jamb
TTITLE10=Prettiest little girl in the country
TTITLE11=Black eyed Susie
TTITLE12=Cotton-eyed Joe
TTITLE13=Tanner's boarding house
TTITLE14=On Tanner's farm
TTITLE15=Down yonder
TTITLE16=Back up and push
TTITLE17=Git along
TTITLE18=Whoa, mule, whoa
TTITLE19=Shortening bread
TTITLE20=Dance all night with a bottle in your hand
TTITLE21=She'll be coming round the mountain
TTITLE22=I don't love nobody
TTITLE23=I got mine
TTITLE24=Old Joe Clark
EXTD=YEAR: 2012
EXTT0=
EXTT1=
EXTT2=
EXTT3=
EXTT4=
EXTT5=
EXTT6=
EXTT7=
EXTT8=
EXTT9=
EXTT10=
EXTT11=
EXTT12=
EXTT13=
EXTT14=
EXTT15=
EXTT16=
EXTT17=
EXTT18=
EXTT19=
EXTT20=
EXTT21=
EXTT22=
EXTT23=
EXTT24=
PLAYORDER=
